<svg width="15" height="15" viewBox="0 0 15 15" fill="none" xmlns="http://www.w3.org/2000/svg">
<path d="M6.611 0.725984C6.98329 0.0031837 8.01671 0.00318447 8.389 0.725985L9.92694 3.71187C10.0666 3.98298 10.3223 4.17556 10.6215 4.23487L13.8661 4.87823C14.6254 5.02878 14.9331 5.94779 14.4176 6.52517L12.0863 9.13605C11.8945 9.35085 11.8046 9.6379 11.8396 9.92373L12.269 13.4272C12.3661 14.2198 11.5408 14.801 10.8273 14.4424L7.94908 12.9957C7.66653 12.8537 7.33347 12.8537 7.05092 12.9957L4.17268 14.4424C3.45918 14.801 2.63389 14.2198 2.73102 13.4272L3.16038 9.92373C3.19541 9.6379 3.10552 9.35085 2.91372 9.13605L0.582447 6.52517C0.0669032 5.9478 0.374605 5.02878 1.13387 4.87823L4.37855 4.23487C4.67769 4.17556 4.93341 3.98298 5.07306 3.71187L6.611 0.725984Z" fill="#FFD600"/>
</svg>
